<?xml version="1.0" encoding="UTF-8" standalone="no"?>
<svg
   xmlns:dc="http://purl.org/dc/elements/1.1/"
   xmlns:cc="http://creativecommons.org/ns#"
   xmlns:rdf="http://www.w3.org/1999/02/22-rdf-syntax-ns#"
   xmlns:svg="http://www.w3.org/2000/svg"
   xmlns="http://www.w3.org/2000/svg"
   xmlns:xlink="http://www.w3.org/1999/xlink"
   xmlns:sodipodi="http://sodipodi.sourceforge.net/DTD/sodipodi-0.dtd"
   xmlns:inkscape="http://www.inkscape.org/namespaces/inkscape"
   viewBox="0 0 435.74231 435.73373"
   version="1.1"
   id="svg44"
   sodipodi:docname="tensorflow_new.svg"
   width="435.74231"
   height="435.73373"
   inkscape:version="0.92.4 5da689c313, 2019-01-14">
  <metadata
     id="metadata50">
    <rdf:RDF>
      <cc:Work
         rdf:about="">
        <dc:format>image/svg+xml</dc:format>
        <dc:type
           rdf:resource="http://purl.org/dc/dcmitype/StillImage" />
      </cc:Work>
    </rdf:RDF>
  </metadata>
  <defs
     id="defs48" />
  <sodipodi:namedview
     pagecolor="#ffffff"
     bordercolor="#666666"
     borderopacity="1"
     objecttolerance="10"
     gridtolerance="10"
     guidetolerance="10"
     inkscape:pageopacity="0"
     inkscape:pageshadow="2"
     inkscape:window-width="1600"
     inkscape:window-height="854"
     id="namedview46"
     showgrid="false"
     inkscape:zoom="0.66821619"
     inkscape:cx="121.92752"
     inkscape:cy="211.86305"
     inkscape:window-x="1920"
     inkscape:window-y="46"
     inkscape:window-maximized="0"
     inkscape:current-layer="svg44" />
  <g
     id="g58"
     transform="matrix(7.6865862,0,0,7.6865862,-1456.8142,-1456.7855)">
    <g
       transform="translate(193.87115,186.76686)"
       id="g19">
      <g
         id="g17">
        <defs
           id="defs3">
          <path
             inkscape:connector-curvature="0"
             d="M 47.5,17.6 25,4.8 v 52.6 l 9,-5.2 V 37.4 L 40.8,41.3 40.7,31.2 34,27.3 v -5.9 l 13.5,7.9 z"
             id="SVGID_1_" />
        </defs>
        <clipPath
           id="SVGID_2_">
          <use
             height="100%"
             width="100%"
             y="0"
             x="0"
             style="overflow:visible"
             id="use5"
             overflow="visible"
             xlink:href="#SVGID_1_" />
        </clipPath>
        <g
           id="g15"
           clip-path="url(#SVGID_2_)">
          <linearGradient
             gradientTransform="translate(0,-304)"
             y2="335.04999"
             x2="53.599998"
             y1="335.04999"
             x1="-1.6"
             gradientUnits="userSpaceOnUse"
             id="SVGID_3_">
            <stop
               id="stop8"
               stop-color="#ff6f00"
               offset="0" />
            <stop
               id="stop10"
               stop-color="#ffa800"
               offset="1" />
          </linearGradient>
          <path
             style="fill:url(#SVGID_3_)"
             inkscape:connector-curvature="0"
             id="path13"
             d="M -1.6,4.6 H 53.6 V 57.5 H -1.6 Z" />
        </g>
      </g>
    </g>
    <g
       transform="translate(193.87115,186.76686)"
       id="g38">
      <g
         id="g36">
        <defs
           id="defs22">
          <path
             inkscape:connector-curvature="0"
             d="M 0.5,17.6 23,4.8 V 57.4 L 14,52.2 V 21.4 L 0.5,29.3 Z"
             id="SVGID_4_" />
        </defs>
        <clipPath
           id="SVGID_5_">
          <use
             height="100%"
             width="100%"
             y="0"
             x="0"
             style="overflow:visible"
             id="use24"
             overflow="visible"
             xlink:href="#SVGID_4_" />
        </clipPath>
        <g
           id="g34"
           clip-path="url(#SVGID_5_)">
          <linearGradient
             gradientTransform="translate(0,-304)"
             y2="335.04999"
             x2="53.299999"
             y1="335.04999"
             x1="-1.9"
             gradientUnits="userSpaceOnUse"
             id="SVGID_6_">
            <stop
               id="stop27"
               stop-color="#ff6f00"
               offset="0" />
            <stop
               id="stop29"
               stop-color="#ffa800"
               offset="1" />
          </linearGradient>
          <path
             style="fill:url(#SVGID_6_)"
             inkscape:connector-curvature="0"
             id="path32"
             d="M -1.9,4.6 H 53.3 V 57.5 H -1.9 Z" />
        </g>
      </g>
    </g>
  </g>
  <path
     style="fill:#425066"
     d="m 548.45201,207.86686 h -10 v 27.7 h -5.6 v -27.7 h -10 v -4.5 h 25.6 z"
     id="path40"
     inkscape:connector-curvature="0" />
  <path
     style="fill:#425066"
     d="m 555.15201,235.96686 c -3.4,0 -6.2,-1.1 -8.3,-3.2 -2.1,-2.1 -3.2,-5 -3.2,-8.6 v -0.7 c 0,-2.2 0.4,-4.4 1.4,-6.4 0.9,-1.8 2.2,-3.3 3.9,-4.4 1.7,-1.1 3.6,-1.6 5.6,-1.6 3.3,0 5.8,1 7.6,3.1 1.8,2.1 2.7,5 2.7,8.8 v 2.2 h -15.7 c 0.1,1.8 0.8,3.4 2,4.7 1.2,1.2 2.7,1.8 4.4,1.7 2.4,0.1 4.6,-1.1 6,-3 l 2.9,2.8 c -1,1.4 -2.3,2.6 -3.8,3.3 -1.8,1 -3.6,1.4 -5.5,1.3 z m -0.6,-20.5 c -1.4,-0.1 -2.7,0.5 -3.6,1.5 -1,1.2 -1.6,2.7 -1.7,4.3 h 10.3 v -0.4 c -0.1,-1.8 -0.6,-3.2 -1.4,-4.1 -1,-0.8 -2.3,-1.4 -3.6,-1.3 z m 19.4,-3.9 0.2,2.8 c 1.7,-2.1 4.3,-3.3 7,-3.2 5,0 7.5,2.9 7.6,8.6 v 15.8 h -5.4 v -15.5 c 0,-1.5 -0.3,-2.6 -1,-3.4 -0.7,-0.7 -1.7,-1.1 -3.2,-1.1 -2.1,-0.1 -4,1.1 -4.9,2.9 v 17 h -5.4 v -24 z m 32.2,17.5 c 0,-0.9 -0.4,-1.7 -1.2,-2.2 -1.2,-0.7 -2.6,-1.1 -3.9,-1.3 -1.6,-0.3 -3.1,-0.8 -4.6,-1.5 -2.7,-1.3 -4,-3.2 -4,-5.6 0,-2 1,-4 2.6,-5.2 1.7,-1.4 4,-2.1 6.6,-2.1 2.9,0 5.2,0.7 6.9,2.1 1.7,1.3 2.7,3.4 2.6,5.5 h -5.4 c 0,-1 -0.4,-1.9 -1.2,-2.6 -0.9,-0.7 -1.9,-1.1 -3.1,-1 -1,0 -2,0.2 -2.9,0.8 -0.7,0.5 -1.1,1.3 -1.1,2.2 0,0.8 0.4,1.5 1,1.9 0.7,0.5 2.1,0.9 4.2,1.4 1.7,0.3 3.4,0.9 5,1.7 1.1,0.5 2,1.3 2.7,2.3 0.6,1 0.9,2.1 0.9,3.3 0,2.1 -1,4 -2.7,5.2 -1.8,1.3 -4.1,2 -7,2 -1.8,0 -3.6,-0.3 -5.2,-1.1 -1.4,-0.6 -2.7,-1.6 -3.6,-2.9 -0.8,-1.2 -1.3,-2.6 -1.3,-4 h 5.2 c 0,1.1 0.5,2.2 1.4,2.9 1,0.7 2.3,1.1 3.5,1 1.4,0 2.5,-0.3 3.2,-0.8 1,-0.4 1.4,-1.2 1.4,-2 z m 8.1,-5.7 c 0,-2.2 0.4,-4.4 1.4,-6.3 0.9,-1.8 2.2,-3.3 3.9,-4.3 1.8,-1 3.8,-1.6 5.8,-1.5 3.2,0 5.9,1 7.9,3.1 2,2.1 3.1,4.8 3.3,8.3 v 1.3 c 0,2.2 -0.4,4.3 -1.4,6.3 -0.8,1.8 -2.2,3.3 -3.9,4.3 -1.8,1 -3.8,1.6 -5.9,1.5 -3.4,0 -6.1,-1.1 -8.1,-3.4 -2,-2.2 -3,-5.2 -3.1,-9 z m 5.3,0.5 c 0,2.5 0.5,4.4 1.5,5.8 1.8,2.3 5.1,2.8 7.5,1 0.4,-0.3 0.7,-0.6 1,-1 1,-1.4 1.5,-3.5 1.5,-6.2 0,-2.4 -0.5,-4.3 -1.6,-5.8 -1.7,-2.3 -5,-2.8 -7.4,-1.1 -0.4,0.3 -0.8,0.7 -1.1,1 -0.8,1.4 -1.4,3.5 -1.4,6.3 z m 33.1,-7.3 c -0.7,-0.1 -1.5,-0.2 -2.2,-0.2 -2.5,0 -4.1,0.9 -5,2.8 v 16.4 h -5.4 v -24 h 5.1 l 0.1,2.7 c 1.3,-2.1 3.1,-3.1 5.4,-3.1 0.6,0 1.3,0.1 1.9,0.3 z m 22.5,5.3 h -13 v 13.7 h -5.6 v -32.2 h 20.5 v 4.5 h -14.9 v 9.6 h 13 z m 10.7,13.7 h -5.4 v -32.3 h 5.4 z m 3.9,-12.2 c 0,-2.2 0.4,-4.4 1.4,-6.3 0.9,-1.8 2.2,-3.3 3.9,-4.3 1.8,-1 3.8,-1.6 5.8,-1.5 3.2,0 5.9,1 7.9,3.1 2,2.1 3.1,4.8 3.3,8.3 v 1.3 c 0,2.2 -0.4,4.3 -1.3,6.3 -0.8,1.8 -2.2,3.3 -3.9,4.3 -1.8,1 -3.8,1.6 -5.9,1.5 -3.4,0 -6.1,-1.1 -8.1,-3.4 -2,-2.2 -3.1,-5.2 -3.1,-9 z m 5.4,0.5 c 0,2.5 0.5,4.4 1.5,5.8 1,1.4 2.6,2.2 4.3,2.1 1.7,0.1 3.3,-0.7 4.2,-2.1 1,-1.4 1.5,-3.5 1.5,-6.2 0,-2.4 -0.5,-4.3 -1.6,-5.8 -1.7,-2.3 -5,-2.8 -7.4,-1.1 -0.4,0.3 -0.8,0.7 -1.1,1 -0.9,1.4 -1.4,3.5 -1.4,6.3 z m 41.2,4.3 3.8,-16.5 h 5.2 l -6.5,24 h -4.4 l -5.1,-16.5 -5.1,16.5 h -4.4 l -6.6,-24 h 5.3 l 3.9,16.4 4.9,-16.4 h 4.1 z"
     id="path42"
     inkscape:connector-curvature="0" />
</svg>
