<?xml version="1.0" encoding="UTF-8" standalone="no"?>
<svg
   xmlns:dc="http://purl.org/dc/elements/1.1/"
   xmlns:cc="http://creativecommons.org/ns#"
   xmlns:rdf="http://www.w3.org/1999/02/22-rdf-syntax-ns#"
   xmlns:svg="http://www.w3.org/2000/svg"
   xmlns="http://www.w3.org/2000/svg"
   xmlns:sodipodi="http://sodipodi.sourceforge.net/DTD/sodipodi-0.dtd"
   xmlns:inkscape="http://www.inkscape.org/namespaces/inkscape"
   width="435.74234"
   height="435.73373"
   viewBox="0 0 44.620016 44.620996"
   preserveAspectRatio="xMinYMin meet"
   version="1.1"
   id="svg10"
   sodipodi:docname="react.svg"
   inkscape:version="0.92.4 5da689c313, 2019-01-14">
  <metadata
     id="metadata16">
    <rdf:RDF>
      <cc:Work
         rdf:about="">
        <dc:format>image/svg+xml</dc:format>
        <dc:type
           rdf:resource="http://purl.org/dc/dcmitype/StillImage" />
      </cc:Work>
    </rdf:RDF>
  </metadata>
  <defs
     id="defs14" />
  <sodipodi:namedview
     pagecolor="#ffffff"
     bordercolor="#666666"
     borderopacity="1"
     objecttolerance="10"
     gridtolerance="10"
     guidetolerance="10"
     inkscape:pageopacity="0"
     inkscape:pageshadow="2"
     inkscape:window-width="1600"
     inkscape:window-height="854"
     id="namedview12"
     showgrid="false"
     inkscape:zoom="0.82066116"
     inkscape:cx="289.65047"
     inkscape:cy="115.76058"
     inkscape:window-x="1920"
     inkscape:window-y="46"
     inkscape:window-maximized="0"
     inkscape:current-layer="svg10" />
  <path
     d="m -376.89128,24.819386 c 0,19.215 18.763,37.152 48.343,47.263 -5.907,29.737004 -1.058,53.706004 15.136,63.045004 16.645,9.6 41.443,2.955 64.97999,-17.62 22.943,19.744 46.13,27.514 62.31,18.148 16.63,-9.627 21.687,-35.221 15.617,-65.887004 30.81,-10.186 48.04401,-25.481 48.04401,-44.949 0,-18.7689973 -18.79701,-35.005997 -47.97901,-45.051997 6.535,-31.933 0.998,-55.32 -15.867,-65.045 -16.259,-9.376002 -39.716,-1.204 -62.996,19.056 -24.21999,-21.504 -47.44499,-28.069002 -64.29199,-18.317 -16.244,9.403 -20.879,33.808 -14.953,64.095 -28.582,9.965 -48.343,26.5699997 -48.343,45.262997 z"
     id="path2"
     inkscape:connector-curvature="0"
     style="fill:#ffffff;stroke:#000000" />
  <g
     id="g17"
     transform="matrix(0.19245671,0,0,0.19245671,18.017048,18.016691)">
    <path
       inkscape:connector-curvature="0"
       id="path4"
       d="m 68.446168,-78.207208 c -11.30723,-0.0802 -25.80179,7.083576 -40.40429,19.790826 a 151.13599,151.13599 0 0 0 -5.62603,5.163015 137.573,137.573 0 0 0 -3.74396,-3.458144 c -20.4049953,-18.118 -40.858017,-25.751978 -53.139016,-18.642978 -11.776,6.817 -15.26403,27.059986 -10.30703,52.389985 a 150.91,150.91 0 0 0 1.670069,7.484112 c -2.894,0.821999 -5.688948,1.697909 -8.362948,2.62991 -23.921999,8.3399987 -39.200035,21.4120577 -39.200035,34.970058 0,14.004 16.399924,28.04993 41.317923,36.56592 a 128.43999,128.43999 0 0 0 6.110054,1.91008 147.813,147.813 0 0 0 -1.775073,8.06694 c -4.726,24.88999 -1.034953,44.653154 10.710047,51.428144 12.130999,6.995 32.4909847,-0.19513 52.316989,-17.52513 1.567,-1.37 3.13999,-2.822974 4.71499,-4.345984 a 148.33999,148.33999 0 0 0 6.10805,5.573034 c 19.20401,16.525 38.16988,23.19809 49.90488,16.40509 12.12001,-7.016 16.05806,-28.247054 10.94406,-54.078054 -0.39,-1.973 -0.84505,-3.98805 -1.35506,-6.04006 1.43001,-0.422 2.83318,-0.85806 4.20218,-1.31206 25.904002,-8.582 42.756982,-22.45692 42.756982,-36.64792 0,-13.6070003 -15.77007,-26.7670683 -40.174082,-35.168067 a 151.364,151.364 0 0 0 -7.27389,-2.291896 137.5,137.5 0 0 0 1.12384,-4.961006 c 5.506,-26.727999 1.90597,-48.260109 -10.38803,-55.348109 -2.94676,-1.699499 -6.36155,-2.530971 -10.13062,-2.557706 z m -0.0078,9.631002 c 2.08135,0.02986 3.87462,0.45665 5.31762,1.288854 7.566,4.363999 10.50883,21.960878 5.75484,45.037877 a 127.52499,127.52499 0 0 1 -1.01584,4.491988 c -9.37401,-2.163 -19.55407,-3.772999 -30.21207,-4.772999 -6.20899,-8.840999 -12.64199,-16.879995 -19.09999,-23.837994 a 141.92,141.92 0 0 1 5.19601,-4.765999 c 13.29347,-11.56903 25.8941,-17.558871 34.05943,-17.441727 z m -92.398658,0.213009 c 8.716811,-0.09028 22.1827707,6.404272 36.222108,18.869786 1.126,1 2.25715,2.046931 3.39015,3.129931 -6.5640053,7.049 -13.0510083,15.073994 -19.2480093,23.819993 -10.6269987,0.985 -20.8000567,2.566996 -30.1520567,4.685996 a 141.52499,141.52499 0 0 1 -1.553065,-6.961891 v 0.001 c -4.247,-21.702999 -1.426963,-38.073959 5.670037,-42.181959 1.535625,-0.888875 3.448904,-1.339843 5.670836,-1.362856 z m 46.379138,28.897805 c 4.452,4.823 8.91095,10.209069 13.29695,16.052069 a 284.24499,284.24499 0 0 0 -26.7059083,-0.006 c 4.3899983,-5.789 8.8869483,-11.16707 13.4089583,-16.046069 z m -0.10701,25.387058 c 6.996,0 13.89506,0.267833 20.61306,0.779833 a 290.70399,290.70399 0 0 1 10.88705,17.3831247 316.41799,316.41799 0 0 1 9.74102,18.1299623 290.80599,290.80599 0 0 1 -9.70901,18.28995 h -10e-4 a 316.47799,316.47799 0 0 1 -10.84004,17.49014 c -6.704,0.479 -13.63207,0.72582 -20.69207,0.72582 -7.031,0 -13.8708493,-0.21882 -20.4578503,-0.64582 A 273.79799,273.79799 0 0 1 -9.1900443,40.557546 271.33399,271.33399 0 0 1 -18.830046,22.351586 273.86399,273.86399 0 0 1 -9.2190463,4.1356247 v 0.002 A 271.25198,271.25198 0 0 1 1.7369847,-13.304502 c 6.719993,-0.508 13.6098533,-0.773832 20.5748533,-0.773832 z m -32.967994,2.008884 a 283.78998,283.78998 0 0 0 -6.926889,11.3840747 285.23999,285.23999 0 0 0 -6.378065,11.6848883 c -2.811001,-6.6670013 -5.2161,-13.2220163 -7.180099,-19.5520163 6.446999,-1.443 13.322054,-2.6219467 20.485053,-3.5169467 z m 65.950954,0.018 c 7.21,0.91 14.11705,2.1199497 20.60305,3.6009497 -1.94699,6.241 -4.3739,12.767011 -7.2319,19.4570073 A 336.41998,336.41998 0 0 0 62.165898,-0.7513793 306.98199,306.98199 0 0 0 55.294818,-12.05145 Z M -40.5122,-6.1824063 c 2.827999,9.197001 6.537059,18.8129933 11.013059,28.5369923 -4.534,9.869 -8.296065,19.63801 -11.150065,28.943 a 118.908,118.908 0 0 1 -5.577833,-1.74607 c -11.018,-3.766 -20.117099,-8.65998 -26.354099,-13.99999 -5.603999,-4.79999 -8.433951,-9.56495 -8.433951,-13.43195 0,-8.227 12.266965,-18.7220793 32.725964,-25.8550803 a 139.27599,139.27599 0 0 1 7.776925,-2.446902 z m 125.768038,0.142007 c 2.31101,0.67 4.55509,1.374887 6.71709,2.119888 20.910002,7.196999 33.664002,17.8400813 33.664002,26.0400873 0,8.735 -13.77511,20.07495 -36.140112,27.48595 h -0.001 c -1.235,0.409 -2.50296,0.80405 -3.79496,1.18705 -2.86,-9.053 -6.72008,-18.68 -11.44207,-28.625 4.507,-9.710001 8.21705,-19.2129763 10.99705,-28.2079753 z M 68.757978,33.354646 c 3.01999,6.884 5.56592,13.54403 7.58791,19.87702 -6.552,1.495 -13.62507,2.69896 -21.07807,3.59296 a 337.53699,337.53699 0 0 0 6.93709,-11.49809 306.63198,306.63198 0 0 0 6.55307,-11.97189 z m -92.708068,0.34701 a 283.49398,283.49398 0 0 0 6.406067,11.69189 285.26999,285.26999 0 0 0 7.093896,11.60408 c -7.4,-0.82599 -14.379069,-1.94514 -20.824068,-3.34814 1.995,-6.44199 4.453105,-13.13783 7.324105,-19.94783 z m 102.942898,28.827 c 0.46,1.86001 0.87004,3.68284 1.22304,5.46583 2.26101,11.42201 2.58405,21.74905 1.08605,29.82205 -1.346,7.254004 -4.05211,12.089984 -7.3981,14.026994 -7.121,4.12199 -22.34983,-1.23585 -38.77183,-15.367854 -1.883,-1.62 -3.78003,-3.35002 -5.68203,-5.18001 6.367,-6.964 12.72999,-15.06 18.93998,-24.05001 10.92401,-0.96899 21.24388,-2.554 30.60289,-4.717 z m -112.872912,0.43202 c 9.255,2.047 19.50007,3.51999 30.4500657,4.40798 6.251003,8.797 12.798016,16.88301 19.3960163,23.96401 a 118.86299,118.86299 0 0 1 -4.30518,3.96396 C 2.8937947,102.96063 -5.8910603,108.3965 -13.633059,111.13149 h -0.001 c -6.956998,2.457 -12.49806,2.52703 -15.84706,0.59602 -7.128,-4.10999 -10.090052,-19.979914 -6.049052,-41.264924 a 138.507,138.507 0 0 1 1.650067,-7.50191 z m 69.830912,5.10882 c -4.4,5.98 -8.84295,11.44808 -13.26495,16.31707 -4.575,-4.937 -9.13797,-10.39707 -13.5949673,-16.27007 4.3259973,0.16999 8.7369473,0.25601 13.2199473,0.25601 4.60601,0 9.15897,-0.10302 13.63997,-0.30301 z"
       style="fill:#53c1de;stroke-width:1" />
    <path
       style="fill:#53c1de"
       inkscape:connector-curvature="0"
       id="path8"
       d="m 22.310888,1.9425867 c 11.144,0 20.177,9.0340003 20.177,20.1769993 0,11.144 -9.033,20.178 -20.177,20.178 -11.143,0 -20.1769953,-9.034 -20.1769953,-20.178 0,-11.142999 9.0339953,-20.1769993 20.1769953,-20.1769993" />
  </g>
</svg>
